<svg xmlns="http://www.w3.org/2000/svg" viewBox="0 0 1400 900"><rect width="1400" height="900" fill="#e76540"/><rect x="130" y="80" width="1140" height="740" rx="20" fill="#f4e6ce"/><rect x="130" y="80" width="1140" height="54" rx="20" fill="#22231f"/><circle cx="166" cy="107" r="7" fill="#e76540"/><circle cx="190" cy="107" r="7" fill="#f6c765"/><circle cx="214" cy="107" r="7" fill="#98aa72"/><path d="M880 134h390v686H880z" fill="#37251d"/><path d="M880 134l390 360-390 326z" fill="#c4472b" opacity=".85"/><circle cx="1090" cy="398" r="152" fill="#e9a650"/><circle cx="1090" cy="398" r="105" fill="#43291d"/><path d="M1040 360c52-34 96 7 110 43-48 28-91 22-110-43Z" fill="#efc879"/><text x="205" y="275" font-family="Arial" font-size="24" letter-spacing="4">CASA LUMBRE · COCINA DE FUEGO</text><text x="200" y="430" font-family="Georgia" font-size="105" fill="#22231f">Comer sin</text><text x="200" y="540" font-family="Georgia" font-size="105" fill="#22231f">prisa.</text><rect x="205" y="630" width="220" height="62" rx="31" fill="#22231f"/><text x="245" y="669" font-family="Arial" font-size="19" fill="#f4e6ce">VER LA CARTA →</text><text x="205" y="760" font-family="Arial" font-size="18">CONCEPTO WEB · 2026</text></svg>
