<svg xmlns="http://www.w3.org/2000/svg" viewBox="0 0 1400 900"><rect width="1400" height="900" fill="#e4ff78"/><rect x="110" y="120" width="420" height="590" transform="rotate(-7 320 415)" fill="#ff786f"/><text x="155" y="235" font-family="Arial" font-weight="700" font-size="52">NOPAL</text><text x="155" y="292" font-family="Arial" font-weight="700" font-size="52">CLUB</text><circle cx="320" cy="470" r="130" fill="#173c2e"/><path d="M320 350v240M260 410q60 20 120 0M250 495q70 30 140 0" stroke="#e4ff78" stroke-width="22" fill="none"/><rect x="540" y="80" width="350" height="620" fill="#f3eee7"/><text x="580" y="155" font-family="Arial" font-size="18" letter-spacing="3">GUÍA RÁPIDA</text><text x="580" y="235" font-family="Arial" font-weight="700" font-size="48">5 formas</text><text x="580" y="288" font-family="Arial" font-weight="700" font-size="48">de cuidar</text><text x="580" y="341" font-family="Arial" font-weight="700" font-size="48">tu planta</text><g fill="#173c2e"><circle cx="610" cy="430" r="26"/><circle cx="610" cy="505" r="26"/><circle cx="610" cy="580" r="26"/></g><g font-family="Arial" font-size="20"><text x="660" y="438">Luz sin exceso</text><text x="660" y="513">Riego con pausa</text><text x="660" y="588">Maceta con salida</text></g><rect x="915" y="170" width="360" height="640" rx="32" fill="#173c2e"/><text x="960" y="250" font-family="Arial" fill="#e4ff78" font-size="18" letter-spacing="2">HISTORIA · 02</text><text x="960" y="360" font-family="Arial" fill="#f3eee7" font-weight="700" font-size="54">¿Mucha</text><text x="960" y="420" font-family="Arial" fill="#f3eee7" font-weight="700" font-size="54">o poca</text><text x="960" y="480" font-family="Arial" fill="#f3eee7" font-weight="700" font-size="54">agua?</text><path d="M1080 550c-90 100-70 180 0 180s90-80 0-180Z" fill="#64c99a"/></svg>
